FILE "build.iso" BINARY
  TRACK 01 MODE1/2048
      INDEX 01 00:00:00
      POSTGAP 00:02:00
FILE "track02.wav" WAVE
  TRACK 02 AUDIO
    PREGAP 00:02:00
    INDEX 01 00:00:00
FILE "track03.wav" WAVE
  TRACK 03 AUDIO
    INDEX 01 00:00:00
FILE "track04.wav" WAVE
  TRACK 04 AUDIO
    INDEX 01 00:00:00
